<mxfile host="app.diagrams.net" modified="2024-04-01T03:31:08.273Z" agent="Mozilla/5.0 (Windows NT 10.0; Win64; x64) AppleWebKit/537.36 (KHTML, like Gecko) Chrome/123.0.0.0 Safari/537.36" etag="jgMyySvEVrOJbnAZLMzO" version="24.2.1" type="device">
  <diagram name="페이지-1" id="N_lmab4TVPQGBmuOPXRE">
    <mxGraphModel dx="1641" dy="2325" grid="1" gridSize="10" guides="1" tooltips="1" connect="1" arrows="1" fold="1" page="1" pageScale="1" pageWidth="827" pageHeight="1169" math="0" shadow="0">
      <root>
        <mxCell id="0" />
        <mxCell id="1" parent="0" />
        <mxCell id="AGg6izgDLkqGK4XQM06V-8" value="&lt;font style=&quot;font-size: 15px;&quot;&gt;리스트 페이지 시작&lt;/font&gt;" style="strokeWidth=2;html=1;shape=mxgraph.flowchart.terminator;whiteSpace=wrap;" vertex="1" parent="1">
          <mxGeometry x="30" y="-1150" width="150" height="90" as="geometry" />
        </mxCell>
        <mxCell id="AGg6izgDLkqGK4XQM06V-9" value="&lt;font style=&quot;font-size: 15px;&quot;&gt;db 접속&lt;/font&gt;" style="rounded=0;whiteSpace=wrap;html=1;" vertex="1" parent="1">
          <mxGeometry x="45" y="-975" width="120" height="60" as="geometry" />
        </mxCell>
        <mxCell id="AGg6izgDLkqGK4XQM06V-10" value="" style="endArrow=classic;html=1;rounded=0;" edge="1" parent="1">
          <mxGeometry width="50" height="50" relative="1" as="geometry">
            <mxPoint x="104.58000000000004" y="-1050" as="sourcePoint" />
            <mxPoint x="104.29000000000002" y="-990" as="targetPoint" />
          </mxGeometry>
        </mxCell>
        <mxCell id="AGg6izgDLkqGK4XQM06V-13" value="" style="endArrow=classic;html=1;rounded=0;" edge="1" parent="1">
          <mxGeometry width="50" height="50" relative="1" as="geometry">
            <mxPoint x="104.29000000000002" y="-909" as="sourcePoint" />
            <mxPoint x="106.72277082661844" y="-853.2167198991999" as="targetPoint" />
          </mxGeometry>
        </mxCell>
        <mxCell id="AGg6izgDLkqGK4XQM06V-14" value="&lt;font style=&quot;font-size: 15px;&quot;&gt;DB 접속&lt;/font&gt;&lt;div&gt;&lt;font style=&quot;font-size: 15px;&quot;&gt;&amp;nbsp;예외 발생&lt;/font&gt;&lt;/div&gt;" style="rhombus;whiteSpace=wrap;html=1;" vertex="1" parent="1">
          <mxGeometry x="62" y="-850" width="90" height="110" as="geometry" />
        </mxCell>
        <mxCell id="AGg6izgDLkqGK4XQM06V-15" value="&lt;font style=&quot;font-size: 15px;&quot;&gt;예외 메시지 출력&lt;/font&gt;" style="shape=document;whiteSpace=wrap;html=1;boundedLbl=1;" vertex="1" parent="1">
          <mxGeometry x="294" y="-690" width="120" height="80" as="geometry" />
        </mxCell>
        <mxCell id="AGg6izgDLkqGK4XQM06V-18" style="edgeStyle=orthogonalEdgeStyle;rounded=0;orthogonalLoop=1;jettySize=auto;html=1;exitX=0.5;exitY=1;exitDx=0;exitDy=0;exitPerimeter=0;" edge="1" parent="1">
          <mxGeometry relative="1" as="geometry">
            <mxPoint x="218.33500000000004" y="-250" as="sourcePoint" />
            <mxPoint x="218.28571428571445" y="-250" as="targetPoint" />
          </mxGeometry>
        </mxCell>
        <mxCell id="AGg6izgDLkqGK4XQM06V-19" value="&lt;font style=&quot;font-size: 15px;&quot;&gt;리스트 페이지&lt;/font&gt;&lt;div style=&quot;font-size: 15px;&quot;&gt;&lt;font style=&quot;font-size: 15px;&quot;&gt;종료&lt;/font&gt;&lt;/div&gt;" style="strokeWidth=2;html=1;shape=mxgraph.flowchart.terminator;whiteSpace=wrap;" vertex="1" parent="1">
          <mxGeometry x="45" y="140" width="130" height="70" as="geometry" />
        </mxCell>
        <mxCell id="AGg6izgDLkqGK4XQM06V-20" value="" style="endArrow=classic;html=1;rounded=0;" edge="1" parent="1">
          <mxGeometry width="50" height="50" relative="1" as="geometry">
            <mxPoint x="378" y="-623" as="sourcePoint" />
            <mxPoint x="200" y="180" as="targetPoint" />
            <Array as="points">
              <mxPoint x="380" y="-313" />
            </Array>
          </mxGeometry>
        </mxCell>
        <mxCell id="AGg6izgDLkqGK4XQM06V-21" value="PAGE 획득" style="shape=parallelogram;perimeter=parallelogramPerimeter;whiteSpace=wrap;html=1;fixedSize=1;" vertex="1" parent="1">
          <mxGeometry x="-58" y="-580" width="120" height="60" as="geometry" />
        </mxCell>
        <mxCell id="AGg6izgDLkqGK4XQM06V-34" style="edgeStyle=orthogonalEdgeStyle;rounded=0;orthogonalLoop=1;jettySize=auto;html=1;exitX=0;exitY=0.5;exitDx=0;exitDy=0;entryX=0.5;entryY=0;entryDx=0;entryDy=0;" edge="1" parent="1" source="AGg6izgDLkqGK4XQM06V-22" target="AGg6izgDLkqGK4XQM06V-21">
          <mxGeometry relative="1" as="geometry" />
        </mxCell>
        <mxCell id="AGg6izgDLkqGK4XQM06V-35" value="YES" style="edgeLabel;html=1;align=center;verticalAlign=middle;resizable=0;points=[];" vertex="1" connectable="0" parent="AGg6izgDLkqGK4XQM06V-34">
          <mxGeometry x="0.1416" relative="1" as="geometry">
            <mxPoint y="1" as="offset" />
          </mxGeometry>
        </mxCell>
        <mxCell id="AGg6izgDLkqGK4XQM06V-22" value="페이지 파라미터 존재" style="rhombus;whiteSpace=wrap;html=1;" vertex="1" parent="1">
          <mxGeometry x="35.5" y="-703" width="143" height="80" as="geometry" />
        </mxCell>
        <mxCell id="AGg6izgDLkqGK4XQM06V-30" value="1 획득" style="shape=parallelogram;perimeter=parallelogramPerimeter;whiteSpace=wrap;html=1;fixedSize=1;" vertex="1" parent="1">
          <mxGeometry x="110" y="-580" width="120" height="60" as="geometry" />
        </mxCell>
        <mxCell id="AGg6izgDLkqGK4XQM06V-32" value="" style="endArrow=classic;html=1;rounded=0;entryX=0.658;entryY=-0.083;entryDx=0;entryDy=0;entryPerimeter=0;" edge="1" parent="1" target="AGg6izgDLkqGK4XQM06V-30">
          <mxGeometry relative="1" as="geometry">
            <mxPoint x="178.5" y="-663.5" as="sourcePoint" />
            <mxPoint x="278.5" y="-663.5" as="targetPoint" />
            <Array as="points">
              <mxPoint x="220" y="-663" />
            </Array>
          </mxGeometry>
        </mxCell>
        <mxCell id="AGg6izgDLkqGK4XQM06V-33" value="NO" style="edgeLabel;resizable=0;html=1;;align=center;verticalAlign=middle;" connectable="0" vertex="1" parent="AGg6izgDLkqGK4XQM06V-32">
          <mxGeometry relative="1" as="geometry">
            <mxPoint x="-10" y="20" as="offset" />
          </mxGeometry>
        </mxCell>
        <mxCell id="AGg6izgDLkqGK4XQM06V-36" value="" style="endArrow=classic;html=1;rounded=0;entryX=0.6;entryY=-0.025;entryDx=0;entryDy=0;entryPerimeter=0;" edge="1" parent="1" target="AGg6izgDLkqGK4XQM06V-15">
          <mxGeometry relative="1" as="geometry">
            <mxPoint x="152" y="-795.5" as="sourcePoint" />
            <mxPoint x="252" y="-795.5" as="targetPoint" />
            <Array as="points">
              <mxPoint x="360" y="-800" />
            </Array>
          </mxGeometry>
        </mxCell>
        <mxCell id="AGg6izgDLkqGK4XQM06V-37" value="YES" style="edgeLabel;resizable=0;html=1;;align=center;verticalAlign=middle;" connectable="0" vertex="1" parent="AGg6izgDLkqGK4XQM06V-36">
          <mxGeometry relative="1" as="geometry" />
        </mxCell>
        <mxCell id="AGg6izgDLkqGK4XQM06V-40" value="" style="endArrow=classic;html=1;rounded=0;" edge="1" parent="1">
          <mxGeometry relative="1" as="geometry">
            <mxPoint x="107" y="-737" as="sourcePoint" />
            <mxPoint x="107" y="-707" as="targetPoint" />
          </mxGeometry>
        </mxCell>
        <mxCell id="AGg6izgDLkqGK4XQM06V-42" value="NO" style="edgeLabel;html=1;align=center;verticalAlign=middle;resizable=0;points=[];" vertex="1" connectable="0" parent="AGg6izgDLkqGK4XQM06V-40">
          <mxGeometry y="2" relative="1" as="geometry">
            <mxPoint x="-149" y="11" as="offset" />
          </mxGeometry>
        </mxCell>
        <mxCell id="AGg6izgDLkqGK4XQM06V-44" value="DB에서 해당 페이지&amp;nbsp;&lt;div&gt;아이디 획득&lt;/div&gt;" style="rounded=0;whiteSpace=wrap;html=1;" vertex="1" parent="1">
          <mxGeometry x="34.5" y="-430" width="120" height="60" as="geometry" />
        </mxCell>
        <mxCell id="AGg6izgDLkqGK4XQM06V-45" value="" style="endArrow=classic;html=1;rounded=0;exitX=0.428;exitY=1.025;exitDx=0;exitDy=0;exitPerimeter=0;" edge="1" parent="1" source="AGg6izgDLkqGK4XQM06V-21">
          <mxGeometry width="50" height="50" relative="1" as="geometry">
            <mxPoint x="10" y="-490" as="sourcePoint" />
            <mxPoint x="90" y="-440" as="targetPoint" />
            <Array as="points">
              <mxPoint x="-7" y="-490" />
              <mxPoint x="90" y="-490" />
            </Array>
          </mxGeometry>
        </mxCell>
        <mxCell id="AGg6izgDLkqGK4XQM06V-48" value="" style="endArrow=none;html=1;rounded=0;" edge="1" parent="1">
          <mxGeometry width="50" height="50" relative="1" as="geometry">
            <mxPoint x="90" y="-470" as="sourcePoint" />
            <mxPoint x="178.5" y="-520" as="targetPoint" />
            <Array as="points">
              <mxPoint x="179" y="-470" />
            </Array>
          </mxGeometry>
        </mxCell>
        <mxCell id="AGg6izgDLkqGK4XQM06V-49" value="페이지 관련 설정 셋팅" style="rounded=0;whiteSpace=wrap;html=1;" vertex="1" parent="1">
          <mxGeometry x="35.5" y="-170" width="120" height="60" as="geometry" />
        </mxCell>
        <mxCell id="AGg6izgDLkqGK4XQM06V-50" value="" style="endArrow=classic;html=1;rounded=0;" edge="1" parent="1">
          <mxGeometry width="50" height="50" relative="1" as="geometry">
            <mxPoint x="95" y="-365" as="sourcePoint" />
            <mxPoint x="95" y="-315" as="targetPoint" />
          </mxGeometry>
        </mxCell>
        <mxCell id="AGg6izgDLkqGK4XQM06V-51" value="" style="endArrow=classic;html=1;rounded=0;" edge="1" parent="1">
          <mxGeometry width="50" height="50" relative="1" as="geometry">
            <mxPoint x="94.73" y="-100" as="sourcePoint" />
            <mxPoint x="94.73" y="-50" as="targetPoint" />
          </mxGeometry>
        </mxCell>
        <mxCell id="AGg6izgDLkqGK4XQM06V-52" value="DB에서 게시글 조회" style="rounded=0;whiteSpace=wrap;html=1;" vertex="1" parent="1">
          <mxGeometry x="34.5" y="-30" width="120" height="60" as="geometry" />
        </mxCell>
        <mxCell id="AGg6izgDLkqGK4XQM06V-53" value="&lt;font style=&quot;font-size: 15px;&quot;&gt;예외 메시지 출력&lt;/font&gt;" style="shape=document;whiteSpace=wrap;html=1;boundedLbl=1;" vertex="1" parent="1">
          <mxGeometry x="270" y="-220" width="120" height="80" as="geometry" />
        </mxCell>
        <mxCell id="AGg6izgDLkqGK4XQM06V-56" value="" style="endArrow=classic;html=1;rounded=0;" edge="1" parent="1">
          <mxGeometry width="50" height="50" relative="1" as="geometry">
            <mxPoint x="104.23" y="50" as="sourcePoint" />
            <mxPoint x="104.23" y="110" as="targetPoint" />
          </mxGeometry>
        </mxCell>
        <mxCell id="AGg6izgDLkqGK4XQM06V-57" value="&lt;font style=&quot;font-size: 15px;&quot;&gt;게시글 수 획득 예외 발생&lt;/font&gt;" style="rhombus;whiteSpace=wrap;html=1;" vertex="1" parent="1">
          <mxGeometry x="34.5" y="-310" width="110" height="100" as="geometry" />
        </mxCell>
        <mxCell id="AGg6izgDLkqGK4XQM06V-59" value="" style="endArrow=classic;html=1;rounded=0;exitX=1;exitY=0.5;exitDx=0;exitDy=0;" edge="1" parent="1" source="AGg6izgDLkqGK4XQM06V-57">
          <mxGeometry relative="1" as="geometry">
            <mxPoint x="180" y="-260.77" as="sourcePoint" />
            <mxPoint x="330" y="-261" as="targetPoint" />
          </mxGeometry>
        </mxCell>
        <mxCell id="AGg6izgDLkqGK4XQM06V-61" value="YES" style="edgeLabel;html=1;align=center;verticalAlign=middle;resizable=0;points=[];" vertex="1" connectable="0" parent="AGg6izgDLkqGK4XQM06V-59">
          <mxGeometry x="0.0708" relative="1" as="geometry">
            <mxPoint as="offset" />
          </mxGeometry>
        </mxCell>
        <mxCell id="AGg6izgDLkqGK4XQM06V-64" value="" style="endArrow=classic;html=1;rounded=0;" edge="1" parent="1">
          <mxGeometry relative="1" as="geometry">
            <mxPoint x="88.97000000000003" y="-210" as="sourcePoint" />
            <mxPoint x="88.97000000000003" y="-170" as="targetPoint" />
          </mxGeometry>
        </mxCell>
        <mxCell id="AGg6izgDLkqGK4XQM06V-65" value="NO" style="edgeLabel;resizable=0;html=1;;align=center;verticalAlign=middle;" connectable="0" vertex="1" parent="AGg6izgDLkqGK4XQM06V-64">
          <mxGeometry relative="1" as="geometry" />
        </mxCell>
      </root>
    </mxGraphModel>
  </diagram>
</mxfile>
